
To make the SVG without a background, you can remove the fill="#000000" attribute from the <g> tag and set it to fill="none" instead. Here's the modified SVG code:

xml
Copy code
<?xml version="1.0" standalone="no"?>
<!DOCTYPE svg PUBLIC "-//W3C//DTD SVG 20010904//EN"
 "http://www.w3.org/TR/2001/REC-SVG-20010904/DTD/svg10.dtd">
<svg version="1.0" xmlns="http://www.w3.org/2000/svg"
 width="626.000000pt" height="626.000000pt" viewBox="0 0 626.000000 626.000000"
 preserveAspectRatio="xMidYMid meet">
<metadata>
Created by potrace 1.16, written by Peter Selinger 2001-2019
</metadata>
<g transform="translate(0.000000,626.000000) scale(0.100000,-0.100000)" fill="none" stroke="none">
<path d="M1438 5637 c-67 -21 -123 -70 -154 -133 l-29 -59 -3 -2262 -2 -2263
-115 0 -115 0 0 -155 0 -155 1650 0 1650 0 0 155 0 155 -120 0 -120 0 2 1138
3 1137 70 0 70 0 5 -766 5 -766 44 -57 c154 -199 382 -276 568 -192 133 62
263 197 301 315 72 224 86 323 87 616 0 272 -7 342 -56 545 -54 222 -116 387
-219 585 -91 175 -228 383 -335 510 -23 28 -47 65 -53 83 -6 18 -51 96 -99
174 l-88 141 -152 115 -153 114 0 417 c0 415 0 416 -24 466 -12 28 -41 67 -64
87 -79 72 -10 68 -1331 67 -878 0 -1196 -4 -1223 -12z m2193 -701 c42 -18 69
-43 100 -93 l24 -38 3 -425 c2 -370 1 -430 -13 -467 -24 -61 -52 -93 -109
-119 l-51 -24 -918 0 c-1004 0 -956 -3 -1021 58 -16 15 -37 45 -47 67 -17 37
-19 73 -19 468 0 364 2 433 15 465 21 49 52 81 100 103 38 18 87 19 971 19
783 0 937 -2 965 -14z m546 -760 c15 -13 26 -27 23 -29 -3 -3 -29 -16 -57 -29
-38 -16 -50 -27 -45 -36 7 -10 21 -10 73 3 82 19 75 20 88 -16 21 -60 15 -75
-39 -103 -62 -32 -71 -32 -109 0 -30 25 -31 28 -31 112 0 65 4 90 17 104 22
24 46 23 80 -6z m194 -212 c7 -9 29 -23 48 -32 37 -18 127 -129 228 -282 166
-251 289 -522 354 -780 45 -177 75 -464 64 -615 -13 -183 -63 -433 -100 -505
-21 -40 -140 -149 -187 -170 -99 -45 -201 -16 -310 88 l-58 55 0 824 0 823
-165 0 -165 0 0 255 0 255 45 -7 c41 -5 51 -2 98 29 70 47 121 78 128 78 4 0
12 -7 20 -16z m-1591 -1029 c178 -321 310 -619 333 -752 35 -199 -100 -415
-301 -482 -83 -28 -206 -28 -288 -1 -232 80 -355 322 -284 560 45 150 182 439
350 737 66 117 77 130 88 115 7 -9 53 -89 102 -177z"/>
<path d="M2748 4700 c-38 -29 -51 -71 -46 -148 4 -73 19 -111 110 -267 56 -97
62 -116 45 -139 -21 -29 -51 -6 -78 59 -21 51 -47 74 -68 61 -4 -3 -2 -42 5
-88 8 -46 14 -84 14 -85 0 -9 39 -1 42 8 3 9 9 9 25 0 45 -24 104 -9 136 35
24 32 33 121 18 179 -7 26 -43 104 -81 174 -66 121 -85 181 -57 181 22 0 34
-14 61 -67 21 -43 31 -53 51 -53 28 0 27 -7 6 125 -7 41 -35 60 -51 35 -6 -10
-15 -10 -40 -1 -46 16 -64 14 -92 -9z"/>
<path d="M1710 4685 c0 -14 7 -28 15 -31 23 -9 22 -485 0 -504 -9 -7 -15 -23
-13 -34 3 -19 11 -21 83 -24 128 -5 180 5 222 41 58 51 76 104 81 237 7 182
-29 284 -111 324 -27 12 -65 16 -156 16 l-121 0 0 -25z m214 -31 c14 -13 16
-51 16 -259 0 -231 -1 -245 -19 -255 -11 -5 -24 -10 -30 -10 -12 0 -16 522 -4
533 10 11 20 8 37 -9z"/>
<path d="M2140 4686 c0 -13 7 -26 15 -30 22 -8 23 -504 1 -512 -21 -8 -29 -36
-14 -46 7 -4 55 -8 106 -8 90 0 92 0 92 24 0 13 -7 29 -15 36 -13 10 -15 51
-15 254 0 228 1 242 20 259 11 9 17 23 14 32 -5 12 -26 15 -105 15 -98 0 -99
0 -99 -24z"/>
<path d="M2370 4686 c0 -13 7 -26 15 -30 13 -5 15 -42 15 -248 0 -233 -1 -243
-21 -264 -13 -13 -19 -30 -15 -39 5 -13 25 -15 143 -13 155 3 142 -5 156 101
6 45 5 47 -17 47 -20 0 -28 -9 -42 -45 -16 -44 -44 -72 -58 -58 -3 3 -6 64 -6
135 0 128 0 129 22 126 14 -2 24 -12 28 -28 4 -16 14 -26 28 -28 21 -3 22 0
22 76 0 64 -3 81 -16 86 -22 9 -34 -1 -34 -29 0 -21 -17 -35 -41 -35 -12 0
-12 217 1 225 13 8 48 -29 56 -60 4 -18 13 -25 30 -25 28 0 28 -1 13 73 l-12
57 -133 0 -134 0 0 -24z"/>
<path d="M2990 4686 c0 -13 7 -26 15 -30 13 -5 15 -42 15 -249 0 -231 -1 -245
-20 -262 -24 -22 -26 -41 -3 -49 21 -9 247 -6 261 3 8 5 32 103 32 133 0 4
-11 8 -25 8 -20 0 -26 -7 -36 -41 -12 -40 -44 -73 -61 -63 -4 3 -8 63 -8 135
0 123 1 129 21 129 13 0 23 -10 30 -30 7 -19 18 -30 30 -30 18 0 20 6 17 83
-3 74 -5 82 -23 82 -14 0 -21 -8 -25 -30 -4 -21 -11 -31 -28 -33 -22 -3 -22
-2 -22 107 0 60 4 112 10 116 13 8 48 -29 56 -60 4 -18 13 -25 30 -25 27 0 29
8 13 80 l-11 50 -134 0 -134 0 0 -24z"/>
<path d="M3310 4691 c0 -10 7 -24 15 -31 13 -10 15 -52 15 -262 0 -212 -2
-249 -15 -254 -20 -8 -19 -40 1 -48 30 -11 252 -5 262 7 6 7 13 41 17 75 7 63
7 64 -16 60 -17 -2 -28 -15 -40 -47 -16 -44 -41 -67 -59 -56 -6 4 -10 101 -10
256 0 238 1 249 20 261 11 7 20 23 20 35 0 22 -3 23 -105 23 -96 0 -105 -2
-105 -19z"/>
</g>
</svg>
